<?xml version="1.0" encoding="UTF-8" standalone="no"?>
<svg
   viewBox="0 0 24 24"
   version="1.1"
   id="svg7"
   sodipodi:docname="1916081_brand_brands_docs_google_logo_icon.svg"
   inkscape:version="1.2.2 (732a01da63, 2022-12-09)"
   xmlns:inkscape="http://www.inkscape.org/namespaces/inkscape"
   xmlns:sodipodi="http://sodipodi.sourceforge.net/DTD/sodipodi-0.dtd"
   xmlns="http://www.w3.org/2000/svg"
   xmlns:svg="http://www.w3.org/2000/svg">
  <defs
     id="defs11" />
  <sodipodi:namedview
     id="namedview9"
     pagecolor="#ffffff"
     bordercolor="#000000"
     borderopacity="0.25"
     inkscape:showpageshadow="2"
     inkscape:pageopacity="0.0"
     inkscape:pagecheckerboard="0"
     inkscape:deskcolor="#d1d1d1"
     showgrid="false"
     inkscape:zoom="33.916667"
     inkscape:cx="11.307125"
     inkscape:cy="12.014742"
     inkscape:window-width="1920"
     inkscape:window-height="1001"
     inkscape:window-x="-9"
     inkscape:window-y="-9"
     inkscape:window-maximized="1"
     inkscape:current-layer="svg7" />
  <title
     id="title2" />
  <g
     data-name="Google Docs"
     id="Google_Docs"
     style="fill:#ffffff">
    <path
       d="M20.85,5.15l-5-5A.5.5,0,0,0,15.5,0H5A2,2,0,0,0,3,2V22a2,2,0,0,0,2,2H19a2,2,0,0,0,2-2V5.5A.5.5,0,0,0,20.85,5.15ZM12.5,18h-5a.5.5,0,0,1,0-1h5a.5.5,0,0,1,0,1Zm4-2h-9a.5.5,0,0,1,0-1h9a.5.5,0,0,1,0,1Zm0-2h-9a.5.5,0,0,1,0-1h9a.5.5,0,0,1,0,1Zm0-2h-9a.5.5,0,0,1,0-1h9a.5.5,0,0,1,0,1ZM17,5a1,1,0,0,1-1-1V1.71L19.29,5Z"
       style="fill:#ffffff"
       id="path4" />
  </g>
</svg>
