<?xml version="1.0" encoding="UTF-8" standalone="no"?>
<svg
   height="15px"
   version="1.1"
   viewBox="0 0 19 15"
   width="19px"
   id="svg12"
   sodipodi:docname="326722_module_view_icon.svg"
   inkscape:version="1.2.2 (732a01da63, 2022-12-09)"
   xmlns:inkscape="http://www.inkscape.org/namespaces/inkscape"
   xmlns:sodipodi="http://sodipodi.sourceforge.net/DTD/sodipodi-0.dtd"
   xmlns="http://www.w3.org/2000/svg"
   xmlns:svg="http://www.w3.org/2000/svg">
  <sodipodi:namedview
     id="namedview14"
     pagecolor="#ffffff"
     bordercolor="#000000"
     borderopacity="0.25"
     inkscape:showpageshadow="2"
     inkscape:pageopacity="0.0"
     inkscape:pagecheckerboard="0"
     inkscape:deskcolor="#d1d1d1"
     showgrid="false"
     inkscape:zoom="54.266667"
     inkscape:cx="9.0755528"
     inkscape:cy="7.5092138"
     inkscape:window-width="1920"
     inkscape:window-height="1001"
     inkscape:window-x="-9"
     inkscape:window-y="-9"
     inkscape:window-maximized="1"
     inkscape:current-layer="svg12" />
  <title
     id="title2" />
  <desc
     id="desc4" />
  <defs
     id="defs6" />
  <g
     fill="none"
     fill-rule="evenodd"
     id="Page-1"
     stroke="none"
     stroke-width="1"
     style="fill:#ffffff">
    <g
       fill="#000000"
       id="Core"
       transform="translate(-129.000000, -509.000000)"
       style="fill:#ffffff">
      <g
         id="view-module"
         transform="translate(129.500000, 509.500000)"
         style="fill:#ffffff">
        <path
           d="M0,6 L5,6 L5,0 L0,0 L0,6 L0,6 Z M0,13 L5,13 L5,7 L0,7 L0,13 L0,13 Z M6,13 L11,13 L11,7 L6,7 L6,13 L6,13 Z M12,13 L17,13 L17,7 L12,7 L12,13 L12,13 Z M6,6 L11,6 L11,0 L6,0 L6,6 L6,6 Z M12,0 L12,6 L17,6 L17,0 L12,0 L12,0 Z"
           id="Shape"
           style="fill:#ffffff" />
      </g>
    </g>
  </g>
</svg>
